<svg width="1280" height="720" xmlns="http://www.w3.org/2000/svg" xmlns:xlink="http://www.w3.org/1999/xlink" overflow="hidden"><g><rect x="0" y="0" width="1280" height="720" fill="#FFFFFF" fill-opacity="0"/><path d="M441 222.168C441 189.49 467.49 163 500.168 163L761.832 163C794.51 163 821 189.49 821 222.168L821 458.832C821 491.51 794.51 518 761.832 518L500.168 518C467.49 518 441 491.51 441 458.832Z" stroke="#042433" stroke-width="2" stroke-miterlimit="8" fill="#232F3E" fill-rule="evenodd"/><text fill="#FFFFFF" font-family="OCR A Extended,OCR A Extended_MSFontService,sans-serif" font-weight="400" font-stretch="expanded" font-size="48" transform="translate(470.47 475)">SSM</text><text fill="#FFFFFF" font-family="OCR A Extended,OCR A Extended_MSFontService,sans-serif" font-weight="400" font-stretch="expanded" font-size="48" transform="translate(586.47 475)">MANAGE</text><text fill="#FFFFFF" font-family="OCR A Extended,OCR A Extended_MSFontService,sans-serif" font-weight="400" font-stretch="expanded" font-size="48" transform="translate(760.47 475)">R</text><g><g><g><path d="M675.825 378.298 654.675 357.148C653.581 355.95 651.723 355.866 650.524 356.959 649.327 358.053 649.242 359.911 650.336 361.109 650.39 361.169 650.447 361.226 650.506 361.281L666.604 377.379C666.63 377.405 666.621 377.429 666.583 377.429L629.062 377.429 629.062 221.75 585 221.75 585 227.625 623.188 227.625 623.188 383.312 666.586 383.312C666.624 383.312 666.633 383.336 666.607 383.362L650.506 399.469C649.339 400.596 649.307 402.455 650.434 403.622 651.561 404.789 653.421 404.822 654.588 403.695 654.612 403.671 654.636 403.647 654.66 403.622L675.81 382.472C676.967 381.335 676.982 379.475 675.845 378.318 675.838 378.311 675.831 378.305 675.825 378.298Z" fill="#FF9900"/><path d="M708.375 362.75C718.109 362.75 726 370.641 726 380.375 726 390.109 718.109 398 708.375 398 698.641 398 690.75 390.109 690.75 380.375 690.761 370.646 698.646 362.761 708.375 362.75M708.375 356.875C695.396 356.875 684.875 367.396 684.875 380.375 684.875 393.354 695.396 403.875 708.375 403.875 721.354 403.875 731.875 393.354 731.875 380.375 731.875 367.396 721.354 356.875 708.375 356.875Z" fill="#FF9900"/><path d="M567.375 239.375 538 239.375 538 210 567.375 210ZM532.125 204.125 532.125 245.25 573.25 245.25 573.25 204.125Z" fill="#FF9900"/></g></g></g><g><g><g><path d="M706.298 258.175 685.148 279.325C683.95 280.419 683.866 282.277 684.959 283.476 686.053 284.673 687.911 284.758 689.109 283.664 689.169 283.61 689.226 283.553 689.281 283.494L705.379 267.396C705.405 267.37 705.429 267.379 705.429 267.417L705.429 304.938 549.75 304.938 549.75 349 555.625 349 555.625 310.812 711.312 310.812 711.312 267.414C711.312 267.376 711.336 267.367 711.362 267.393L727.469 283.494C728.596 284.661 730.455 284.693 731.622 283.566 732.789 282.439 732.822 280.579 731.695 279.412 731.671 279.388 731.647 279.364 731.622 279.34L710.472 258.19C709.335 257.033 707.475 257.018 706.318 258.155 706.311 258.162 706.305 258.169 706.298 258.175Z" fill="#FF9900"/><path d="M690.75 225.625C690.75 215.891 698.641 208 708.375 208 718.109 208 726 215.891 726 225.625 726 235.359 718.109 243.25 708.375 243.25 698.646 243.239 690.761 235.354 690.75 225.625M684.875 225.625C684.875 238.604 695.396 249.125 708.375 249.125 721.354 249.125 731.875 238.604 731.875 225.625 731.875 212.646 721.354 202.125 708.375 202.125 695.396 202.125 684.875 212.646 684.875 225.625Z" fill="#FF9900"/><path d="M567.375 366.625 567.375 396 538 396 538 366.625ZM532.125 401.875 573.25 401.875 573.25 360.75 532.125 360.75Z" fill="#FF9900"/></g></g></g></g></svg>